<mxfile host="Electron" modified="2024-06-04T21:59:17.814Z" agent="Mozilla/5.0 (X11; Linux x86_64) AppleWebKit/537.36 (KHTML, like Gecko) draw.io/24.4.8 Chrome/124.0.6367.207 Electron/30.0.6 Safari/537.36" etag="ssXZzr9I57NvZGvd3u1W" version="24.4.8" type="device">
  <diagram name="Page-1" id="c5X7hhBgmhvkAeY6OyJd">
    <mxGraphModel dx="547" dy="335" grid="1" gridSize="10" guides="1" tooltips="1" connect="1" arrows="1" fold="1" page="1" pageScale="1" pageWidth="850" pageHeight="1100" math="0" shadow="0">
      <root>
        <mxCell id="0" />
        <mxCell id="1" parent="0" />
        <mxCell id="rpW_Cfp9_52fzz7YXeyL-2" value="" style="whiteSpace=wrap;html=1;aspect=fixed;" vertex="1" parent="1">
          <mxGeometry x="240" y="260" width="330" height="330" as="geometry" />
        </mxCell>
        <mxCell id="rpW_Cfp9_52fzz7YXeyL-3" value="" style="shape=mxgraph.signs.tech.camera_1;html=1;pointerEvents=1;fillColor=#000000;strokeColor=none;verticalLabelPosition=bottom;verticalAlign=top;align=center;rotation=-40;" vertex="1" parent="1">
          <mxGeometry x="170" y="590" width="78" height="60" as="geometry" />
        </mxCell>
        <mxCell id="rpW_Cfp9_52fzz7YXeyL-4" value="" style="shape=mxgraph.signs.tech.camera_1;html=1;pointerEvents=1;fillColor=#000000;strokeColor=none;verticalLabelPosition=bottom;verticalAlign=top;align=center;rotation=-135;" vertex="1" parent="1">
          <mxGeometry x="560" y="590" width="78" height="60" as="geometry" />
        </mxCell>
        <mxCell id="rpW_Cfp9_52fzz7YXeyL-5" value="" style="ellipse;whiteSpace=wrap;html=1;aspect=fixed;fillColor=#f8cecc;strokeColor=#b85450;" vertex="1" parent="1">
          <mxGeometry x="331" y="350" width="30" height="30" as="geometry" />
        </mxCell>
        <mxCell id="rpW_Cfp9_52fzz7YXeyL-19" value="" style="endArrow=none;html=1;rounded=0;exitX=0.26;exitY=0.998;exitDx=0;exitDy=0;exitPerimeter=0;fillColor=#ffe6cc;strokeColor=#d79b00;" edge="1" parent="1" target="rpW_Cfp9_52fzz7YXeyL-5">
          <mxGeometry width="50" height="50" relative="1" as="geometry">
            <mxPoint x="346.4" y="590.0000000000001" as="sourcePoint" />
            <mxPoint x="345.6" y="416.66" as="targetPoint" />
          </mxGeometry>
        </mxCell>
        <mxCell id="rpW_Cfp9_52fzz7YXeyL-20" value="" style="endArrow=none;html=1;rounded=0;exitX=0;exitY=0.476;exitDx=0;exitDy=0;exitPerimeter=0;fillColor=#dae8fc;strokeColor=#6c8ebf;entryX=0;entryY=0.5;entryDx=0;entryDy=0;" edge="1" parent="1" target="rpW_Cfp9_52fzz7YXeyL-5">
          <mxGeometry width="50" height="50" relative="1" as="geometry">
            <mxPoint x="240" y="364.74" as="sourcePoint" />
            <mxPoint x="325" y="364.65999999999997" as="targetPoint" />
          </mxGeometry>
        </mxCell>
        <mxCell id="rpW_Cfp9_52fzz7YXeyL-21" value="&lt;font style=&quot;font-size: 8px;&quot;&gt;c&lt;/font&gt;" style="text;html=1;align=center;verticalAlign=middle;whiteSpace=wrap;rounded=0;" vertex="1" parent="1">
          <mxGeometry x="375" y="580" width="60" height="30" as="geometry" />
        </mxCell>
        <mxCell id="rpW_Cfp9_52fzz7YXeyL-25" value="&lt;font color=&quot;#d47d2b&quot;&gt;&lt;span style=&quot;font-size: 8px;&quot;&gt;y&lt;/span&gt;&lt;/font&gt;" style="text;html=1;align=center;verticalAlign=middle;whiteSpace=wrap;rounded=0;" vertex="1" parent="1">
          <mxGeometry x="320" y="465" width="60" height="30" as="geometry" />
        </mxCell>
        <mxCell id="rpW_Cfp9_52fzz7YXeyL-26" value="&lt;span style=&quot;font-size: 8px;&quot;&gt;x&lt;/span&gt;" style="text;html=1;align=center;verticalAlign=middle;whiteSpace=wrap;rounded=0;fontColor=#00b3ff;" vertex="1" parent="1">
          <mxGeometry x="260" y="340" width="60" height="30" as="geometry" />
        </mxCell>
        <mxCell id="rpW_Cfp9_52fzz7YXeyL-42" value="" style="ellipse;whiteSpace=wrap;html=1;aspect=fixed;fillColor=#d5e8d4;strokeColor=#82b366;" vertex="1" parent="1">
          <mxGeometry x="450" y="450" width="25" height="25" as="geometry" />
        </mxCell>
        <mxCell id="rpW_Cfp9_52fzz7YXeyL-44" value="" style="endArrow=none;html=1;rounded=0;entryX=0.667;entryY=0.004;entryDx=0;entryDy=0;exitX=0.5;exitY=0;exitDx=0;exitDy=0;entryPerimeter=0;fillColor=#fff2cc;strokeColor=#d6b656;" edge="1" parent="1" source="rpW_Cfp9_52fzz7YXeyL-42" target="rpW_Cfp9_52fzz7YXeyL-2">
          <mxGeometry width="50" height="50" relative="1" as="geometry">
            <mxPoint x="620" y="380" as="sourcePoint" />
            <mxPoint x="670" y="330" as="targetPoint" />
          </mxGeometry>
        </mxCell>
        <mxCell id="rpW_Cfp9_52fzz7YXeyL-45" value="" style="endArrow=none;html=1;rounded=0;exitX=0;exitY=0.476;exitDx=0;exitDy=0;exitPerimeter=0;fillColor=#dae8fc;strokeColor=#6c8ebf;entryX=0.997;entryY=0.616;entryDx=0;entryDy=0;entryPerimeter=0;" edge="1" parent="1" target="rpW_Cfp9_52fzz7YXeyL-2">
          <mxGeometry width="50" height="50" relative="1" as="geometry">
            <mxPoint x="475" y="462.3" as="sourcePoint" />
            <mxPoint x="566" y="462.56" as="targetPoint" />
          </mxGeometry>
        </mxCell>
        <mxCell id="rpW_Cfp9_52fzz7YXeyL-46" value="&lt;span style=&quot;font-size: 8px;&quot;&gt;x&#39;&lt;/span&gt;" style="text;html=1;align=center;verticalAlign=middle;whiteSpace=wrap;rounded=0;fontColor=#00b3ff;" vertex="1" parent="1">
          <mxGeometry x="490" y="450" width="60" height="30" as="geometry" />
        </mxCell>
        <mxCell id="rpW_Cfp9_52fzz7YXeyL-47" value="&lt;font color=&quot;#d47d2b&quot;&gt;&lt;span style=&quot;font-size: 8px;&quot;&gt;y&#39;&lt;/span&gt;&lt;/font&gt;" style="text;html=1;align=center;verticalAlign=middle;whiteSpace=wrap;rounded=0;" vertex="1" parent="1">
          <mxGeometry x="425" y="330" width="60" height="30" as="geometry" />
        </mxCell>
      </root>
    </mxGraphModel>
  </diagram>
</mxfile>
